<svg id="Layer_1" data-name="Layer 1" xmlns="http://www.w3.org/2000/svg" viewBox="0 0 201.56 49.32"><defs><style>.cls-1{fill:#ddd;}.cls-2{fill:#f8e11e;fill-rule:evenodd;}</style></defs><path class="cls-1" d="M105.46,8c-.16.27-.38.67-.66,1.21-.09.25-.25.6-.47,1.06a.24.24,0,0,1-.2.11L103,10A5.86,5.86,0,0,0,101,9.54c-1.48,0-2.22.65-2.22,2q0,1.08,1.56,1.89c1.74.91,2.71,1.43,2.89,1.57a4.07,4.07,0,0,1,1.56,3.36,5,5,0,0,1-2.13,4.26A7.83,7.83,0,0,1,98,24c-.87,0-1.34-.1-1.4-.29s-.11-.76-.22-1.34c-.07-.24-.17-.61-.3-1.09a.51.51,0,0,1,0-.2c0-.12.06-.17.18-.17s.49,0,.89.06.7.06.9.06q3.73,0,3.74-2.42a2.45,2.45,0,0,0-1.51-2.05c-1.83-1-2.77-1.59-2.81-1.63a4,4,0,0,1-1.52-3.31A4.64,4.64,0,0,1,97.35,8a5.33,5.33,0,0,1,3.72-1.31,9.33,9.33,0,0,1,2.22.32,6.17,6.17,0,0,1,2,.84A.74.74,0,0,1,105.46,8Z"/><path class="cls-1" d="M122.55,23.46q0,.27-.36.27l-.63,0a6.45,6.45,0,0,0-.65,0c-.15,0-.38,0-.69,0l-.7,0a.24.24,0,0,1-.27-.27c0-.73,0-1.81.06-3.26s.07-2.54.07-3.26c0-.31-.09-.5-.28-.54a38.59,38.59,0,0,0-4.18-.1,38.76,38.76,0,0,0-4.17.1c-.18,0-.27.23-.27.54,0,.71,0,1.77.06,3.2s.06,2.49.06,3.2q0,.39-.3.39l-.69,0c-.3,0-.53,0-.68,0a6.45,6.45,0,0,0-.65,0l-.65,0q-.3,0-.3-.27c0-.89,0-2.22.13-4s.13-3.11.13-4,0-2.34-.13-4.21-.13-3.27-.13-4.2q0-.27.3-.27c.15,0,.37,0,.67,0l.67,0,.68,0c.31,0,.53,0,.68,0s.27.07.27.22q0,1-.09,3.12t-.09,3.12a.38.38,0,0,0,.26.41,36.82,36.82,0,0,0,4.24.11,37.83,37.83,0,0,0,4.23-.11c.18-.05.28-.22.28-.52,0-.68,0-1.69-.07-3.05s-.07-2.38-.07-3.06c0-.16.1-.24.28-.24s.38,0,.67,0l.67,0,.65,0c.29,0,.51,0,.65,0s.32.09.32.27q0,1.39-.12,4.2c-.08,1.87-.12,3.28-.12,4.21s0,2.21.13,4S122.55,22.57,122.55,23.46Z"/><path class="cls-1" d="M128.35,23.48c0,.17-.12.25-.35.25l-.67,0c-.3,0-.52,0-.66,0s-.38,0-.68,0l-.66,0q-.3,0-.3-.27c0-.92,0-2.3.12-4.15s.13-3.23.13-4.16,0-2.23-.13-4S125,8,125,7.1q0-.3.27-.3c.16,0,.39,0,.7,0l.72,0,.65,0a6.45,6.45,0,0,1,.65,0c.21,0,.31.08.31.24,0,.9,0,2.26-.09,4.06s-.1,3.15-.1,4.05,0,2.32.1,4.17S128.35,22.56,128.35,23.48Z"/><path class="cls-1" d="M142.26,21.12a11.12,11.12,0,0,1-.18,2.4.41.41,0,0,1-.42.35c-.6,0-1.49,0-2.68-.1s-2.09-.11-2.68-.11-1.4,0-2.52,0l-2.53,0a.27.27,0,0,1-.3-.3c0-.87,0-2.2.09-4s.09-3.1.09-4,0-2.33-.12-4.2-.13-3.26-.13-4.19c0-.18.1-.26.3-.26l.67,0c.29,0,.52,0,.67,0s.37,0,.68,0l.67,0c.2,0,.29.07.29.22,0,.86,0,2.14-.09,3.85s-.1,3-.1,3.87v1.9c0,.86,0,1.49,0,1.91,0,1.79.07,2.68.22,2.68q4.44,0,6.72-.22a5.25,5.25,0,0,0,.55-.08,2.89,2.89,0,0,1,.56-.07C142.18,20.89,142.26,21,142.26,21.12Z"/><path class="cls-1" d="M158.59,23.59c0,.1-.09.14-.29.14l-.67,0a6.62,6.62,0,0,0-.67,0c-.15,0-.38,0-.69,0l-.68,0c-.23,0-.52-.6-.87-1.82s-.7-1.84-1.06-1.86-1.08,0-2.33,0h-1.91c-1.33,0-2.08,0-2.27,0s-.6.65-.92,1.86-.58,1.82-.76,1.82h-2.71c-.16,0-.25-.05-.25-.16a2.09,2.09,0,0,1,.17-.55l3-8.08c.25-.66,1-2.53,2.27-5.64.23-.52.53-1.29.92-2.33.09-.31.2-.46.31-.46a5.67,5.67,0,0,1,.68.06,5.38,5.38,0,0,0,.67.06,5.25,5.25,0,0,0,.66-.06,4.11,4.11,0,0,1,.65-.07q.1,0,.3.45.28.67,2.86,7.27Q158.59,23.51,158.59,23.59ZM153,16.93a19.59,19.59,0,0,0-1.09-3.14c-.7-1.8-1.19-3-1.48-3.55q-2.51,6.38-2.5,6.67c0,.28.3.44.92.49h2.42C152.39,17.41,153,17.25,153,16.93Z"/><path class="cls-1" d="M164.07,7.07c0,.78,0,2-.09,3.55s-.09,2.77-.09,3.56c0,.38,0,1,0,1.71s0,1.32,0,1.7a15.76,15.76,0,0,1-.48,4.29,6.91,6.91,0,0,1-2.33,3.56.7.7,0,0,1-.32.18c-.06,0-.12-.05-.2-.14a23.07,23.07,0,0,0-1.69-1.72.28.28,0,0,1-.1-.18.31.31,0,0,1,.13-.22A11.05,11.05,0,0,0,160,22.3a4,4,0,0,0,.67-1.41,21.57,21.57,0,0,0,.31-4.58l0-1.82c0-.76,0-2-.14-3.66S160.7,8,160.7,7.18a.31.31,0,0,1,.35-.35l.69,0c.31,0,.54,0,.69,0s.38,0,.68,0l.66,0Q164.07,6.83,164.07,7.07Z"/><path class="cls-1" d="M169.88,23.48c0,.17-.12.25-.35.25l-.67,0c-.3,0-.52,0-.66,0s-.38,0-.68,0l-.66,0q-.3,0-.3-.27c0-.92,0-2.3.12-4.15s.13-3.23.13-4.16,0-2.23-.13-4-.12-3.13-.12-4q0-.3.27-.3c.16,0,.39,0,.7,0l.72,0,.65,0c.29,0,.51,0,.65,0s.31.08.31.24c0,.9,0,2.26-.09,4.06s-.1,3.15-.1,4.05,0,2.32.1,4.17S169.88,22.56,169.88,23.48Z"/><path class="cls-1" d="M183.64,9.08c0,.21-.08.32-.22.32l-4.27-.15c-.08,2.46-.11,4.42-.11,5.9,0,.93,0,2.32.1,4.17s.1,3.24.1,4.16c0,.17-.11.25-.35.25l-.66,0c-.3,0-.52,0-.68,0s-.36,0-.66,0l-.66,0c-.21,0-.31-.1-.31-.3,0-.91,0-2.29.12-4.13s.11-3.22.11-4.15q0-2.14-.13-5.9c-2.08.13-3.6.19-4.56.19q-.15,0-.15-.12a2.79,2.79,0,0,1,.11-.62c.09-.36.14-.57.16-.63a9.6,9.6,0,0,1,.17-1.17.21.21,0,0,1,.2-.16h.15c2.85.17,4.72.26,5.63.26s2.12-.06,4-.18a13.19,13.19,0,0,0,1.56-.13c.21,0,.32.08.35.22a6.39,6.39,0,0,0,0,1.17c0,.11,0,.27,0,.49S183.64,9,183.64,9.08Z"/><path class="cls-1" d="M118.85,42.19c0,.32-.1.49-.3.49h-2.4c-.2,0-.72-.74-1.57-2.22a28.52,28.52,0,0,1-1.42-2.71c-.24-.53-.37-.83-.41-.89a1,1,0,0,0-.73-.55h-.69c-.88,0-1.31.11-1.31.32,0,.64,0,1.59.06,2.86s.07,2.22.07,2.85c0,.23-.08.35-.26.35a5.36,5.36,0,0,1-.59,0l-.59,0-.56,0a4.79,4.79,0,0,1-.56,0c-.17,0-.26-.08-.26-.24,0-.77,0-1.91.11-3.44s.11-2.68.11-3.44,0-2-.11-3.63-.11-2.82-.11-3.62c0-.15.09-.23.26-.23l.57,0,.59,0,.56,0,.56,0c.16,0,.24.06.24.19,0,.59,0,1.47-.06,2.66s0,2.08,0,2.67a1.37,1.37,0,0,0,0,.51c0,.13.2.19.42.19a4.73,4.73,0,0,0,3-.75A6.28,6.28,0,0,0,115,31.11c.34-.93.69-1.86,1-2.79a.41.41,0,0,1,.32-.24,7.34,7.34,0,0,1,1.1,0c.77,0,1.15.11,1.15.32a12.4,12.4,0,0,1-.48,1.69,12.36,12.36,0,0,1-1.46,3.08A10.12,10.12,0,0,1,115.05,35a.55.55,0,0,0-.25.39,10.79,10.79,0,0,0,.84,1.86A20.35,20.35,0,0,0,117,39.52c.43.54,1,1.36,1.83,2.47A.46.46,0,0,1,118.85,42.19Z"/><path class="cls-1" d="M129.89,40.58a1.84,1.84,0,0,1-.09.48l-.11.48c0,.25-.07.62-.15,1.09a.24.24,0,0,1-.27.19,2.75,2.75,0,0,1-.39,0,29.33,29.33,0,0,0-4-.19l-2.28,0c-1,0-1.79,0-2.29,0-.23,0-.35-.11-.35-.31,0-.77.05-1.94.13-3.5s.13-2.72.13-3.5,0-2.26-.12-4.42c0-.55,0-1.38-.12-2.49v-.14q0-.24.27-.24c.49,0,1.22,0,2.19,0s1.7,0,2.18,0,1.16,0,2.09,0,1.62,0,2.08,0,.51.1.54.3a16.69,16.69,0,0,1,.21,1.71c0,.16-.07.24-.23.24-.58,0-1.48,0-2.67-.1s-2.1-.1-2.7-.1a1.67,1.67,0,0,0-1.08.23,1.81,1.81,0,0,0-.22,1.13V33a4.6,4.6,0,0,0,0,.74c.06.22.24.32.54.32h.71c1.36,0,2.58,0,3.66-.07.42,0,.92-.05,1.5-.1q.21,0,.21.18a9.92,9.92,0,0,1-.07,1,8.23,8.23,0,0,0-.08,1c0,.13-.11.19-.31.19s-.4,0-.93-.07-1.26-.07-2.62-.07c-1.15,0-1.87,0-2.18,0a.46.46,0,0,0-.47.43s0,.22,0,.8V39c0,.73.11,1.18.33,1.36a2.46,2.46,0,0,0,1.3.21h1.14c.49,0,1.85-.08,4.09-.25h.16C129.82,40.31,129.89,40.4,129.89,40.58Z"/><path class="cls-1" d="M144.59,28.31c0,.8,0,2-.09,3.61s-.08,2.81-.08,3.62,0,1.89,0,3.4,0,2.64,0,3.39c0,.23-.09.35-.26.35a3.5,3.5,0,0,1-.47,0l-.47,0-.51,0a3.87,3.87,0,0,1-.51,0c-.12,0-.27-.12-.44-.35q-2.25-3-6.82-9c-.47-.61-.74-.95-.82-1s-.1.15-.1.43c0,1.07,0,2.67.05,4.81s0,3.74,0,4.81c0,.23-.07.35-.21.35a4.8,4.8,0,0,1-.54,0l-.54,0-.55,0a4.93,4.93,0,0,1-.56,0c-.18,0-.26-.07-.26-.21,0-.77,0-1.91.11-3.45s.11-2.69.11-3.46,0-2.35-.1-4.54c0-.56-.05-1.42-.1-2.56v-.13c0-.1.07-.16.25-.17.45,0,.8,0,1.06,0,.1,0,.28,0,.55-.08a3.36,3.36,0,0,1,.54-.06c.06,0,.17.1.32.3q2.4,3.28,7.33,9.78c.14.18.28.33.4.46a15.22,15.22,0,0,0,.08-2c0-.9,0-2.26-.1-4.06s-.1-3.15-.1-4c0-.23.07-.34.21-.34l.56,0,.57,0,.59,0,.6,0A.2.2,0,0,1,144.59,28.31Z"/><path class="cls-1" d="M157.89,32c0,.4-.62,1.44-1.85,3.14l-2.45,3.19a1.31,1.31,0,0,0-.3.81q0,.55.06,1.68c0,.74.06,1.3.06,1.67,0,.12-.09.19-.26.19h-2.48c-.14,0-.21-.11-.21-.31s0-.89.08-1.61.07-1.26.07-1.62a1.41,1.41,0,0,0-.26-.83l-2.24-2.92q-1.26-1.74-1.83-2.64a1.23,1.23,0,0,1-.19-.6c0-.88,0-2.14,0-3.79,0-.19.09-.28.25-.28l.53,0,.52,0,.63,0,.63,0c.13,0,.19.06.19.17,0,.38,0,1-.06,1.74s-.06,1.36-.06,1.75,1.09,1.88,3.29,4.39c.52-.59,1.12-1.32,1.79-2.19a7.24,7.24,0,0,0,1.41-2.18c0-.37,0-.94-.09-1.7s-.08-1.32-.08-1.7c0-.19.08-.28.24-.28l.57,0,.57,0,.6,0,.6,0c.17,0,.25.11.25.34,0,.4,0,1,0,1.79S157.89,31.61,157.89,32Z"/><path class="cls-1" d="M172.16,42.55c0,.08-.08.13-.25.13a4.93,4.93,0,0,1-.57,0l-.58,0-.59,0a5.51,5.51,0,0,1-.6,0c-.19,0-.44-.53-.74-1.58s-.61-1.58-.92-1.6-.93,0-2,0h-1.64c-1.15,0-1.8,0-2,0s-.51.56-.79,1.6-.5,1.58-.65,1.58h-2.34q-.21,0-.21-.15a2,2,0,0,1,.14-.47l2.55-7q.33-.84,2-4.86c.19-.44.45-1.11.79-2,.08-.27.17-.4.27-.4s.32,0,.58.05a3.83,3.83,0,0,0,.58.05,5.49,5.49,0,0,0,.57-.05,4,4,0,0,1,.56-.06c.06,0,.15.13.26.38s1,2.48,2.46,6.28Q172.17,42.48,172.16,42.55Zm-4.84-5.74a18.19,18.19,0,0,0-.94-2.71c-.6-1.55-1-2.57-1.28-3.06-1.44,3.67-2.15,5.58-2.15,5.76s.26.37.79.41h2.09C166.82,37.22,167.32,37.09,167.32,36.81Z"/><path class="cls-2" d="M41.45,15l-3-.9-6.56,8.63-.07.07a14.92,14.92,0,0,1-1.18-1.72l-.18-.23-.07-.07-4.8,7.45c-1.67,2.56-1.78,3.3-3.78,5.43-.56.6-.33,1.48-.19,2.58a33.39,33.39,0,0,0,2.55-2.82c1.28-1.31,3.09-5,4-6.91L30,22.92a7.1,7.1,0,0,1,1.72,1.69c.73-.4,6.25-8.23,7-8.85a20.89,20.89,0,0,0,2.45,1.58l4.29-7c.87-1.33,3.81-6.21,4.67-6.71.27,1.93-3.79,11.79-4.19,14a14,14,0,0,1,1.34,1.17L42.65,29.1l8.52-9,3.1,1.47c.93-.83,4.35-5.42,5.34-6.31,0,1.22-.29,2.73-.44,4-.15,1.4-.2,2.75-.26,4.15-.21,5,.37,3.79-2.47,6.36-2.33,2.1-1.51,1.57-2.75,6.07A52.54,52.54,0,0,0,52,43.17c3-.08,16.89-.21,19.4.15l6.61,0a86.29,86.29,0,0,0,8.83-.05c-.61-.53-1.13-1.16-1.75-1.75l-7.2-6.95c-.8-.8-3-2.85-3.49-3.51a19.29,19.29,0,0,1-1.62-2L68.36,23c-.67-.66-1.2-1.26-1.76-1.88l-3.43-3.57c-.64-.65-2.93-3.35-3.67-3.67A9.64,9.64,0,0,1,57.68,16L50.26,2.45c-.33.23-5.87,8.3-6.59,9.34A32.66,32.66,0,0,0,41.45,15Z"/><path class="cls-2" d="M20,46.87c0-.13,1.94-2.95,2.21-3.35,1.11-1.65,3.52-5.5,4.72-6.83a5.54,5.54,0,0,1,3.68-2.17c5.62-1.08,3.09-2.21,4.82-6.71.22-.6,2.62-7.84,2.49-8.64,0-.31,0-.12-.11-.3L35,24.63c-1.15,2.23-2,4.71-2.67,5.89-.9,1.6-.95.4-3.9,1.94S25.06,36,23.58,39.07Z"/><path class="cls-2" d="M35.73,44c0-.08,1.12-1.71,1.28-1.94.64-.95,2-3.18,2.73-3.95a3.17,3.17,0,0,1,2.13-1.25c3.25-.63,1.79-1.29,2.79-3.89a38.9,38.9,0,0,0,1.44-5c0-.18,0-.07-.06-.17L44.4,31.11c-.66,1.29-1.17,2.73-1.55,3.41-.52.93-.55.23-2.25,1.12s-1.93,2-2.79,3.83Z"/></svg>