<?xml version="1.0" encoding="utf-8"?>
<!-- Generator: Adobe Illustrator 26.0.1, SVG Export Plug-In . SVG Version: 6.00 Build 0)  -->
<svg version="1.1" id="Layer_1" xmlns="http://www.w3.org/2000/svg" xmlns:xlink="http://www.w3.org/1999/xlink" x="0px" y="0px"
	 viewBox="0 0 201.6 49.3" style="enable-background:new 0 0 201.6 49.3;" xml:space="preserve">
<style type="text/css">
	.st0{fill:#DDDDDD;}
	.st1{fill-rule:evenodd;clip-rule:evenodd;fill:#F8E11E;}
</style>
<g>
	<g>
		<path class="st0" d="M105.5,8c-0.2,0.3-0.4,0.7-0.7,1.2c-0.1,0.2-0.2,0.6-0.5,1.1c0,0.1-0.1,0.1-0.2,0.1c0,0-0.4-0.1-1.2-0.4
			c-0.8-0.3-1.4-0.4-1.9-0.4c-1.5,0-2.2,0.7-2.2,2c0,0.7,0.5,1.4,1.6,1.9c1.7,0.9,2.7,1.4,2.9,1.6c1,0.8,1.6,1.9,1.6,3.4
			c0,1.8-0.7,3.2-2.1,4.3c-1.3,0.9-2.9,1.4-4.7,1.4c-0.9,0-1.3-0.1-1.4-0.3c0-0.3-0.1-0.8-0.2-1.3c-0.1-0.2-0.2-0.6-0.3-1.1
			c0-0.1,0-0.1,0-0.2c0-0.1,0.1-0.2,0.2-0.2c0.2,0,0.5,0,0.9,0.1c0.4,0,0.7,0.1,0.9,0.1c2.5,0,3.7-0.8,3.7-2.4
			c0-0.8-0.5-1.5-1.5-2.1c-1.8-1-2.8-1.6-2.8-1.6c-1-0.8-1.5-1.9-1.5-3.3c0-1.5,0.5-2.7,1.5-3.6c1-0.9,2.2-1.3,3.7-1.3
			c0.6,0,1.4,0.1,2.2,0.3c0.9,0.2,1.6,0.5,2.1,0.8C105.4,7.9,105.4,7.9,105.5,8z"/>
		<path class="st0" d="M122.6,23.5c0,0.2-0.1,0.3-0.4,0.3c-0.1,0-0.3,0-0.6,0c-0.3,0-0.5,0-0.6,0c-0.2,0-0.4,0-0.7,0
			c-0.3,0-0.5,0-0.7,0c-0.2,0-0.3-0.1-0.3-0.3c0-0.7,0-1.8,0.1-3.3c0-1.4,0.1-2.5,0.1-3.3c0-0.3-0.1-0.5-0.3-0.5
			c-0.2-0.1-1.6-0.1-4.2-0.1c-2.5,0-3.9,0-4.2,0.1c-0.2,0-0.3,0.2-0.3,0.5c0,0.7,0,1.8,0.1,3.2c0,1.4,0.1,2.5,0.1,3.2
			c0,0.3-0.1,0.4-0.3,0.4c-0.2,0-0.4,0-0.7,0c-0.3,0-0.5,0-0.7,0c-0.1,0-0.4,0-0.6,0c-0.3,0-0.5,0-0.6,0c-0.2,0-0.3-0.1-0.3-0.3
			c0-0.9,0-2.2,0.1-4c0.1-1.8,0.1-3.1,0.1-4c0-0.9,0-2.3-0.1-4.2c-0.1-1.9-0.1-3.3-0.1-4.2c0-0.2,0.1-0.3,0.3-0.3c0.1,0,0.4,0,0.7,0
			c0.3,0,0.5,0,0.7,0c0.1,0,0.4,0,0.7,0c0.3,0,0.5,0,0.7,0c0.2,0,0.3,0.1,0.3,0.2c0,0.7,0,1.7-0.1,3.1c-0.1,1.4-0.1,2.4-0.1,3.1
			c0,0.2,0.1,0.4,0.3,0.4c0.2,0.1,1.6,0.1,4.2,0.1c2.6,0,4,0,4.2-0.1c0.2,0,0.3-0.2,0.3-0.5c0-0.7,0-1.7-0.1-3.1
			c0-1.4-0.1-2.4-0.1-3.1c0-0.2,0.1-0.2,0.3-0.2c0.2,0,0.4,0,0.7,0c0.3,0,0.5,0,0.7,0c0.1,0,0.4,0,0.7,0c0.3,0,0.5,0,0.7,0
			c0.2,0,0.3,0.1,0.3,0.3c0,0.9,0,2.3-0.1,4.2c-0.1,1.9-0.1,3.3-0.1,4.2c0,0.9,0,2.2,0.1,4C122.5,21.2,122.6,22.6,122.6,23.5z"/>
		<path class="st0" d="M128.3,23.5c0,0.2-0.1,0.3-0.4,0.3c-0.1,0-0.4,0-0.7,0c-0.3,0-0.5,0-0.7,0c-0.2,0-0.4,0-0.7,0
			c-0.3,0-0.5,0-0.7,0c-0.2,0-0.3-0.1-0.3-0.3c0-0.9,0-2.3,0.1-4.1c0.1-1.8,0.1-3.2,0.1-4.2c0-0.9,0-2.2-0.1-4S125,8,125,7.1
			c0-0.2,0.1-0.3,0.3-0.3c0.2,0,0.4,0,0.7,0c0.3,0,0.6,0,0.7,0c0.1,0,0.4,0,0.7,0c0.3,0,0.5,0,0.7,0c0.2,0,0.3,0.1,0.3,0.2
			c0,0.9,0,2.3-0.1,4.1c-0.1,1.8-0.1,3.2-0.1,4.1c0,0.9,0,2.3,0.1,4.2S128.3,22.6,128.3,23.5z"/>
		<path class="st0" d="M142.3,21.1c0,1.1-0.1,1.9-0.2,2.4c-0.1,0.2-0.2,0.4-0.4,0.4c-0.6,0-1.5,0-2.7-0.1c-1.2-0.1-2.1-0.1-2.7-0.1
			c-0.6,0-1.4,0-2.5,0c-1.1,0-2,0-2.5,0c-0.2,0-0.3-0.1-0.3-0.3c0-0.9,0-2.2,0.1-4c0.1-1.8,0.1-3.1,0.1-4c0-0.9,0-2.3-0.1-4.2
			s-0.1-3.3-0.1-4.2c0-0.2,0.1-0.3,0.3-0.3c0.1,0,0.4,0,0.7,0c0.3,0,0.5,0,0.7,0c0.1,0,0.4,0,0.7,0c0.3,0,0.5,0,0.7,0
			c0.2,0,0.3,0.1,0.3,0.2c0,0.9,0,2.1-0.1,3.9c-0.1,1.7-0.1,3-0.1,3.9c0,0.4,0,1.1,0,1.9c0,0.9,0,1.5,0,1.9c0,1.8,0.1,2.7,0.2,2.7
			c3,0,5.2-0.1,6.7-0.2c0.1,0,0.3,0,0.6-0.1c0.2,0,0.4-0.1,0.6-0.1C142.2,20.9,142.3,21,142.3,21.1z"/>
		<path class="st0" d="M158.6,23.6c0,0.1-0.1,0.1-0.3,0.1c-0.2,0-0.4,0-0.7,0c-0.3,0-0.5,0-0.7,0s-0.4,0-0.7,0c-0.3,0-0.5,0-0.7,0
			c-0.2,0-0.5-0.6-0.9-1.8c-0.4-1.2-0.7-1.8-1.1-1.9c-0.3,0-1.1,0-2.3,0h-1.9c-1.3,0-2.1,0-2.3,0c-0.3,0-0.6,0.6-0.9,1.9
			c-0.3,1.2-0.6,1.8-0.8,1.8h-2.7c-0.2,0-0.2-0.1-0.2-0.2c0-0.1,0.1-0.3,0.2-0.5l3-8.1c0.2-0.7,1-2.5,2.3-5.6
			c0.2-0.5,0.5-1.3,0.9-2.3c0.1-0.3,0.2-0.5,0.3-0.5c0.2,0,0.4,0,0.7,0.1c0.3,0,0.5,0.1,0.7,0.1c0.1,0,0.4,0,0.7-0.1
			c0.3,0,0.5-0.1,0.6-0.1c0.1,0,0.2,0.1,0.3,0.4c0.2,0.5,1.1,2.9,2.9,7.3C157.4,20.4,158.6,23.5,158.6,23.6z M153,16.9
			c0-0.2-0.4-1.3-1.1-3.1c-0.7-1.8-1.2-3-1.5-3.5c-1.7,4.2-2.5,6.5-2.5,6.7c0,0.3,0.3,0.4,0.9,0.5c0,0,0.4,0,1.2,0h1.2
			C152.4,17.4,153,17.2,153,16.9z"/>
		<path class="st0" d="M164.1,7.1c0,0.8,0,2-0.1,3.6c-0.1,1.6-0.1,2.8-0.1,3.6c0,0.4,0,1,0,1.7c0,0.8,0,1.3,0,1.7
			c0,1.8-0.2,3.2-0.5,4.3c-0.4,1.5-1.2,2.7-2.3,3.6c-0.2,0.1-0.3,0.2-0.3,0.2c-0.1,0-0.1,0-0.2-0.1c-0.6-0.6-1.1-1.2-1.7-1.7
			c-0.1-0.1-0.1-0.1-0.1-0.2c0-0.1,0-0.1,0.1-0.2c0.5-0.5,0.9-0.8,1.1-1.1c0.3-0.4,0.5-0.9,0.7-1.4c0.2-0.7,0.3-2.3,0.3-4.6l0-1.8
			c0-0.8,0-2-0.1-3.7c-0.1-1.6-0.1-2.8-0.1-3.7c0-0.2,0.1-0.4,0.4-0.4c0.2,0,0.4,0,0.7,0c0.3,0,0.5,0,0.7,0s0.4,0,0.7,0
			c0.3,0,0.5,0,0.7,0C164,6.8,164.1,6.9,164.1,7.1z"/>
		<path class="st0" d="M169.9,23.5c0,0.2-0.1,0.3-0.4,0.3c-0.1,0-0.4,0-0.7,0c-0.3,0-0.5,0-0.7,0c-0.2,0-0.4,0-0.7,0
			c-0.3,0-0.5,0-0.7,0c-0.2,0-0.3-0.1-0.3-0.3c0-0.9,0-2.3,0.1-4.1c0.1-1.8,0.1-3.2,0.1-4.2c0-0.9,0-2.2-0.1-4
			c-0.1-1.8-0.1-3.1-0.1-4c0-0.2,0.1-0.3,0.3-0.3c0.2,0,0.4,0,0.7,0c0.3,0,0.6,0,0.7,0c0.1,0,0.4,0,0.7,0c0.3,0,0.5,0,0.7,0
			c0.2,0,0.3,0.1,0.3,0.2c0,0.9,0,2.3-0.1,4.1c-0.1,1.8-0.1,3.2-0.1,4.1c0,0.9,0,2.3,0.1,4.2S169.9,22.6,169.9,23.5z"/>
		<path class="st0" d="M183.6,9.1c0,0.2-0.1,0.3-0.2,0.3c-0.2,0-1.7,0-4.3-0.1c-0.1,2.5-0.1,4.4-0.1,5.9c0,0.9,0,2.3,0.1,4.2
			s0.1,3.2,0.1,4.2c0,0.2-0.1,0.3-0.4,0.3c-0.1,0-0.4,0-0.7,0c-0.3,0-0.5,0-0.7,0c-0.1,0-0.4,0-0.7,0c-0.3,0-0.5,0-0.7,0
			c-0.2,0-0.3-0.1-0.3-0.3c0-0.9,0-2.3,0.1-4.1c0.1-1.8,0.1-3.2,0.1-4.1c0-1.4,0-3.4-0.1-5.9c-2.1,0.1-3.6,0.2-4.6,0.2
			c-0.1,0-0.1,0-0.1-0.1c0-0.1,0-0.4,0.1-0.6c0.1-0.4,0.1-0.6,0.2-0.6c0-0.3,0.1-0.7,0.2-1.2c0-0.1,0.1-0.2,0.2-0.2l0.1,0
			c2.8,0.2,4.7,0.3,5.6,0.3c0.8,0,2.1-0.1,3.9-0.2c1.2-0.1,1.8-0.1,1.6-0.1c0.2,0,0.3,0.1,0.4,0.2c0-0.1,0,0.3,0,1.2
			c0,0.1,0,0.3,0,0.5C183.6,8.8,183.6,9,183.6,9.1z"/>
	</g>
	<g>
		<path class="st0" d="M118.8,42.2c0,0.3-0.1,0.5-0.3,0.5h-2.4c-0.2,0-0.7-0.7-1.6-2.2c-0.7-1.2-1.2-2.1-1.4-2.7
			c-0.2-0.5-0.4-0.8-0.4-0.9c-0.2-0.3-0.5-0.5-0.7-0.6c-0.1,0-0.3,0-0.7,0c-0.9,0-1.3,0.1-1.3,0.3c0,0.6,0,1.6,0.1,2.9
			c0,1.3,0.1,2.2,0.1,2.9c0,0.2-0.1,0.3-0.3,0.3c-0.1,0-0.3,0-0.6,0c-0.3,0-0.5,0-0.6,0c-0.1,0-0.3,0-0.6,0c-0.2,0-0.4,0-0.6,0
			c-0.2,0-0.3-0.1-0.3-0.2c0-0.8,0-1.9,0.1-3.4c0.1-1.5,0.1-2.7,0.1-3.4c0-0.8,0-2-0.1-3.6c-0.1-1.6-0.1-2.8-0.1-3.6
			c0-0.2,0.1-0.2,0.3-0.2c0.1,0,0.3,0,0.6,0c0.3,0,0.5,0,0.6,0c0.1,0,0.3,0,0.6,0c0.2,0,0.4,0,0.6,0c0.2,0,0.2,0.1,0.2,0.2
			c0,0.6,0,1.5-0.1,2.7c0,1.2-0.1,2.1-0.1,2.7c0,0.3,0,0.4,0.1,0.5c0.1,0.1,0.2,0.2,0.4,0.2c1.3,0,2.3-0.2,3-0.7
			c0.5-0.4,1-1.3,1.5-2.4c0.3-0.9,0.7-1.9,1-2.8c0-0.1,0.2-0.2,0.3-0.2c0.1,0,0.5,0,1.1,0c0.8,0,1.1,0.1,1.1,0.3
			c0,0.1-0.2,0.7-0.5,1.7c-0.4,1.2-0.9,2.2-1.5,3.1c-0.4,0.6-0.9,1.2-1.6,1.8c-0.2,0.1-0.2,0.3-0.2,0.4c0,0.1,0.3,0.7,0.8,1.9
			c0.5,1,0.9,1.7,1.3,2.3c0.4,0.5,1,1.4,1.8,2.5C118.8,42.1,118.8,42.1,118.8,42.2z"/>
		<path class="st0" d="M129.9,40.6c0,0.1,0,0.3-0.1,0.5c-0.1,0.3-0.1,0.4-0.1,0.5c0,0.2-0.1,0.6-0.1,1.1c0,0.1-0.1,0.2-0.3,0.2
			c-0.1,0-0.2,0-0.4,0c-0.9-0.1-2.2-0.2-4-0.2c-0.5,0-1.3,0-2.3,0c-1,0-1.8,0-2.3,0c-0.2,0-0.3-0.1-0.3-0.3c0-0.8,0-1.9,0.1-3.5
			c0.1-1.6,0.1-2.7,0.1-3.5c0-0.8,0-2.3-0.1-4.4c0-0.6-0.1-1.4-0.1-2.5l0-0.1c0-0.2,0.1-0.2,0.3-0.2c0.5,0,1.2,0,2.2,0
			c1,0,1.7,0,2.2,0c0.5,0,1.2,0,2.1,0c0.9,0,1.6,0,2.1,0c0.3,0,0.5,0.1,0.5,0.3c0.1,0.9,0.2,1.5,0.2,1.7c0,0.2-0.1,0.2-0.2,0.2
			c-0.6,0-1.5,0-2.7-0.1c-1.2-0.1-2.1-0.1-2.7-0.1c-0.6,0-0.9,0.1-1.1,0.2c-0.1,0.2-0.2,0.5-0.2,1.1V33c0,0.4,0,0.7,0,0.7
			c0.1,0.2,0.2,0.3,0.5,0.3c0.1,0,0.2,0,0.4,0c0.2,0,0.3,0,0.4,0c1.4,0,2.6,0,3.7-0.1c0.4,0,0.9,0,1.5-0.1c0.1,0,0.2,0,0.2,0.2
			c0,0.2,0,0.6-0.1,1c-0.1,0.5-0.1,0.8-0.1,1c0,0.1-0.1,0.2-0.3,0.2c-0.1,0-0.4,0-0.9-0.1c-0.4,0-1.3-0.1-2.6-0.1
			c-1.1,0-1.9,0-2.2,0c-0.3,0-0.4,0.2-0.5,0.4c0,0,0,0.2,0,0.8V39c0,0.7,0.1,1.2,0.3,1.4c0.2,0.1,0.6,0.2,1.3,0.2l1.1,0
			c0.5,0,1.8-0.1,4.1-0.2l0.2,0C129.8,40.3,129.9,40.4,129.9,40.6z"/>
		<path class="st0" d="M144.6,28.3c0,0.8,0,2-0.1,3.6c-0.1,1.6-0.1,2.8-0.1,3.6c0,0.8,0,1.9,0,3.4c0,1.5,0,2.6,0,3.4
			c0,0.2-0.1,0.3-0.3,0.3c-0.1,0-0.3,0-0.5,0c-0.2,0-0.4,0-0.5,0c-0.1,0-0.3,0-0.5,0c-0.2,0-0.4,0-0.5,0c-0.1,0-0.3-0.1-0.4-0.3
			c-1.5-2-3.8-5-6.8-9c-0.5-0.6-0.7-1-0.8-1c-0.1,0-0.1,0.1-0.1,0.4c0,1.1,0,2.7,0.1,4.8c0,2.1,0.1,3.7,0.1,4.8
			c0,0.2-0.1,0.3-0.2,0.3c-0.1,0-0.3,0-0.5,0c-0.2,0-0.4,0-0.5,0c-0.1,0-0.3,0-0.6,0c-0.2,0-0.4,0-0.6,0c-0.2,0-0.3-0.1-0.3-0.2
			c0-0.8,0-1.9,0.1-3.4c0.1-1.5,0.1-2.7,0.1-3.5c0-0.8,0-2.4-0.1-4.5c0-0.6,0-1.4-0.1-2.6l0-0.1c0-0.1,0.1-0.2,0.2-0.2
			c0.5,0,0.8,0,1.1,0c0.1,0,0.3,0,0.6-0.1c0.2,0,0.4-0.1,0.5-0.1c0.1,0,0.2,0.1,0.3,0.3c1.6,2.2,4,5.5,7.3,9.8
			c0.1,0.2,0.3,0.3,0.4,0.5c0-0.3,0.1-1,0.1-2c0-0.9,0-2.3-0.1-4.1c-0.1-1.8-0.1-3.2-0.1-4c0-0.2,0.1-0.3,0.2-0.3c0.1,0,0.3,0,0.6,0
			c0.3,0,0.4,0,0.6,0c0.1,0,0.3,0,0.6,0c0.3,0,0.5,0,0.6,0C144.5,28.1,144.6,28.2,144.6,28.3z"/>
		<path class="st0" d="M157.9,32c0,0.4-0.6,1.4-1.9,3.1c-0.8,1.1-1.6,2.1-2.4,3.2c-0.2,0.3-0.3,0.5-0.3,0.8c0,0.4,0,0.9,0.1,1.7
			c0,0.7,0.1,1.3,0.1,1.7c0,0.1-0.1,0.2-0.3,0.2h-2.5c-0.1,0-0.2-0.1-0.2-0.3c0-0.4,0-0.9,0.1-1.6c0-0.7,0.1-1.3,0.1-1.6
			c0-0.3-0.1-0.6-0.3-0.8c-0.5-0.6-1.2-1.6-2.2-2.9c-0.8-1.2-1.5-2-1.8-2.6c-0.1-0.2-0.2-0.4-0.2-0.6c0-0.9,0-2.1,0-3.8
			c0-0.2,0.1-0.3,0.2-0.3c0.1,0,0.3,0,0.5,0c0.2,0,0.4,0,0.5,0c0.1,0,0.3,0,0.6,0s0.5,0,0.6,0c0.1,0,0.2,0.1,0.2,0.2
			c0,0.4,0,1-0.1,1.7c0,0.8-0.1,1.4-0.1,1.7c0,0.4,1.1,1.9,3.3,4.4c0.5-0.6,1.1-1.3,1.8-2.2c0.9-1.2,1.4-1.9,1.4-2.2
			c0-0.4,0-0.9-0.1-1.7c-0.1-0.8-0.1-1.3-0.1-1.7c0-0.2,0.1-0.3,0.2-0.3c0.1,0,0.3,0,0.6,0c0.3,0,0.4,0,0.6,0c0.1,0,0.3,0,0.6,0
			c0.3,0,0.5,0,0.6,0c0.2,0,0.2,0.1,0.2,0.3c0,0.4,0,1,0,1.8C157.9,31,157.9,31.6,157.9,32z"/>
		<path class="st0" d="M172.2,42.6c0,0.1-0.1,0.1-0.2,0.1c-0.1,0-0.3,0-0.6,0c-0.3,0-0.4,0-0.6,0c-0.1,0-0.3,0-0.6,0
			c-0.3,0-0.5,0-0.6,0c-0.2,0-0.4-0.5-0.7-1.6c-0.3-1.1-0.6-1.6-0.9-1.6c-0.3,0-0.9,0-2,0h-1.6c-1.1,0-1.8,0-2,0
			c-0.2,0-0.5,0.6-0.8,1.6c-0.3,1-0.5,1.6-0.7,1.6h-2.3c-0.1,0-0.2,0-0.2-0.1c0-0.1,0-0.2,0.1-0.5l2.5-7c0.2-0.6,0.9-2.2,2-4.9
			c0.2-0.4,0.5-1.1,0.8-2c0.1-0.3,0.2-0.4,0.3-0.4c0.1,0,0.3,0,0.6,0.1c0.3,0,0.5,0.1,0.6,0.1c0.1,0,0.3,0,0.6-0.1
			c0.3,0,0.4-0.1,0.6-0.1c0.1,0,0.1,0.1,0.3,0.4c0.2,0.4,1,2.5,2.5,6.3C171.1,39.8,172.2,42.5,172.2,42.6z M167.3,36.8
			c0-0.2-0.3-1.1-0.9-2.7c-0.6-1.6-1-2.6-1.3-3.1c-1.4,3.7-2.2,5.6-2.2,5.8c0,0.2,0.3,0.4,0.8,0.4c0,0,0.4,0,1,0h1.1
			C166.8,37.2,167.3,37.1,167.3,36.8z"/>
	</g>
</g>
<g>
	<path class="st1" d="M41.5,15l-3-0.9l-6.6,8.6c0,0-0.1,0-0.1,0.1c-0.5-0.5-0.7-1.1-1.2-1.7l-0.2-0.2c0,0,0,0-0.1-0.1l-4.8,7.4
		c-1.7,2.6-1.8,3.3-3.8,5.4c-0.6,0.6-0.3,1.5-0.2,2.6c0.5-0.3,2.1-2.4,2.6-2.8c1.3-1.3,3.1-5,4-6.9l1.8-3.6c0.6,0.3,1.5,1.4,1.7,1.7
		c0.7-0.4,6.3-8.2,7-8.9c0.6,0.3,1.9,1.4,2.4,1.6l4.3-7c0.9-1.3,3.8-6.2,4.7-6.7c0.3,1.9-3.8,11.8-4.2,14c0.4,0.4,1,0.7,1.3,1.2
		l-4.6,10.3l8.5-9l3.1,1.5c0.9-0.8,4.3-5.4,5.3-6.3c0,1.2-0.3,2.7-0.4,4C59,20.6,59,22,58.9,23.4c-0.2,5,0.4,3.8-2.5,6.4
		c-2.3,2.1-1.5,1.6-2.7,6.1c-0.4,1.5-1.6,5.9-1.7,7.4c3-0.1,16.9-0.2,19.4,0.2l6.6,0c2.4,0,6.7,0.2,8.8-0.1
		c-0.6-0.5-1.1-1.2-1.8-1.7l-7.2-6.9c-0.8-0.8-3-2.9-3.5-3.5c-0.6-0.8-0.7-0.6-1.6-2L68.4,23c-0.7-0.7-1.2-1.3-1.8-1.9l-3.4-3.6
		c-0.6-0.6-2.9-3.3-3.7-3.7c-0.1,0.3-1.4,1.9-1.8,2.1L50.3,2.5c-0.3,0.2-5.9,8.3-6.6,9.3C43,12.8,41.9,14.2,41.5,15z"/>
	<path class="st1" d="M20,46.9c0-0.1,1.9-2.9,2.2-3.3c1.1-1.6,3.5-5.5,4.7-6.8c1-1.1,1.7-1.8,3.7-2.2c5.6-1.1,3.1-2.2,4.8-6.7
		c0.2-0.6,2.6-7.8,2.5-8.6c0-0.3,0-0.1-0.1-0.3L35,24.6c-1.1,2.2-2,4.7-2.7,5.9c-0.9,1.6-1,0.4-3.9,1.9c-2.9,1.5-3.3,3.5-4.8,6.6
		L20,46.9z"/>
	<path class="st1" d="M35.7,44c0-0.1,1.1-1.7,1.3-1.9c0.6-1,2-3.2,2.7-4c0.6-0.7,1-1,2.1-1.3c3.2-0.6,1.8-1.3,2.8-3.9
		c0.1-0.3,1.5-4.5,1.4-5c0-0.2,0-0.1-0.1-0.2l-1.6,3.3c-0.7,1.3-1.2,2.7-1.5,3.4c-0.5,0.9-0.5,0.2-2.3,1.1c-1.7,0.9-1.9,2-2.8,3.8
		L35.7,44z"/>
</g>
</svg>
